<svg width="167" height="57" viewBox="0 0 167 57" fill="none" xmlns="http://www.w3.org/2000/svg">
<path d="M122.72 37.2406H122.697C120.273 37.2406 118.822 34.8879 118.822 31.87C118.822 28.874 120.225 26.4503 122.72 26.4503C125.216 26.4503 126.569 28.9219 126.569 31.7978C126.569 34.9348 125.17 37.2406 122.72 37.2406ZM122.815 23.5744C118.11 23.5744 115.019 27.1618 115.019 31.9641C115.019 36.5274 117.825 40.1149 122.554 40.1149H122.577C127.26 40.1149 130.42 36.9548 130.42 31.6789C130.42 27.2577 127.735 23.5744 122.815 23.5744Z" fill="white"/>
<path d="M35.861 23.5399L38.0545 23.5366V40.1525H32.7731V26.8564C32.7731 24.6315 34.2226 23.5399 35.861 23.5399Z" fill="white"/>
<path d="M19.3727 23.5491H16.754L19.8623 27.9114C22.1621 31.2284 24.9031 31.8524 27.47 31.8524H30.086L26.1334 26.463C24.2835 23.7941 22.6947 23.5337 20.8074 23.5337C20.3497 23.5337 19.8739 23.5491 19.3727 23.5491Z" fill="url(#paint0_linear_80_132)"/>
<path d="M28.6684 18.1431L24.7164 23.533H27.3318C29.8982 23.533 32.6386 22.9096 34.939 19.592L38.0467 15.2292H35.4291C34.928 15.2292 34.4527 15.2138 33.9945 15.2138C32.1077 15.2138 30.5189 15.4748 28.6684 18.1431Z" fill="url(#paint1_linear_80_132)"/>
<mask id="mask0_80_132" style="mask-type:luminance" maskUnits="userSpaceOnUse" x="0" y="0" width="167" height="57">
<path d="M0 3.8147e-06H166.87V57H0V3.8147e-06Z" fill="white"/>
</mask>
<g mask="url(#mask0_80_132)">
<path d="M53.3524 35.7322H45.97V23.5458L40.6709 23.543V40.1523H48.88C52.3512 40.1523 53.3524 37.4769 53.3524 36.0885V35.7322Z" fill="white"/>
<path d="M83.4384 33.1301H77.3287V37.0727H84.1544V37.6157C84.1544 39.0988 82.9306 40.1523 81.0389 40.1523H73.5826V23.543H83.8074V26.6243H77.3287V30.0741H83.4384V33.1301Z" fill="white"/>
<path d="M136.623 23.5429L142.533 34.6653V23.5429H145.985V40.1527H142.045L135.689 28.2158V37.6888C135.689 40.1527 133.752 40.1527 133.752 40.1527H132.237V23.5429H136.623Z" fill="white"/>
<path d="M89.4544 37.0717H96.0367V37.6125C96.0367 39.0956 94.8152 40.148 92.9267 40.148H85.8719V23.5563H89.4544V37.0717Z" fill="white"/>
<path d="M101.002 37.0717H107.585V37.6125C107.585 39.0956 106.363 40.148 104.475 40.148H97.4198V23.5563H101.002V37.0717Z" fill="white"/>
<path d="M113.041 23.5595V36.6778C113.041 39.4529 111.846 40.1369 110.678 40.1369H109.302V23.5595H113.041Z" fill="white"/>
<path d="M71.3268 39.4706C70.6857 39.7795 68.9498 40.159 67.0251 40.159C61.487 40.159 58.6348 36.6889 58.6348 32.1024C58.6348 26.6343 62.5322 23.6169 67.3825 23.6169C69.2599 23.6169 70.6857 23.9963 71.3268 24.3295V27.1817C70.6136 26.8728 68.8309 26.5869 67.5235 26.5869C64.6718 26.5869 62.4364 28.3217 62.4364 31.9108C62.4364 35.1199 64.3392 37.141 67.5482 37.141C68.6646 37.141 70.5904 36.9268 71.3268 36.6167V39.4706Z" fill="white"/>
</g>
<defs>
<linearGradient id="paint0_linear_80_132" x1="28.61" y1="31.9195" x2="18.6078" y2="23.5267" gradientUnits="userSpaceOnUse">
<stop offset="1" stop-color="white"/>
</linearGradient>
<linearGradient id="paint1_linear_80_132" x1="26.1919" y1="23.5999" x2="36.1934" y2="15.2076" gradientUnits="userSpaceOnUse">
<stop offset="1" stop-color="white"/>
</linearGradient>
</defs>
</svg>
