<svg width="241" height="83" viewBox="0 0 241 83" fill="none" xmlns="http://www.w3.org/2000/svg">
<path d="M176.672 53.6128H176.638C173.148 53.6128 171.061 50.2258 171.061 45.881C171.061 41.5679 173.079 38.0786 176.672 38.0786C180.265 38.0786 182.213 41.6369 182.213 45.7771C182.213 50.2931 180.198 53.6128 176.672 53.6128ZM176.809 33.9384C170.035 33.9384 165.585 39.103 165.585 46.0166C165.585 52.586 169.624 57.7506 176.432 57.7506H176.465C183.207 57.7506 187.757 53.2013 187.757 45.6059C187.757 39.2409 183.892 33.9384 176.809 33.9384Z" fill="#13377D"/>
<path d="M51.6267 33.8889L54.7846 33.8841V57.8049H47.1813V38.6634C47.1813 35.4603 49.268 33.8889 51.6267 33.8889Z" fill="#13377D"/>
<path d="M27.8897 33.9021H24.1198L28.5945 40.1821C31.9055 44.9574 35.8514 45.8557 39.5469 45.8557H43.3128L37.6226 38.097C34.9595 34.2549 32.6721 33.8798 29.9551 33.8798C29.2962 33.8798 28.6112 33.9021 27.8897 33.9021Z" fill="url(#paint0_linear_102_4161)"/>
<path d="M41.2721 26.1194L35.5826 33.8789H39.3478C43.0425 33.8789 46.9877 32.9814 50.2994 28.2054L54.7734 21.9245H51.005C50.2835 21.9245 49.5993 21.9023 48.9396 21.9023C46.2234 21.9023 43.936 22.2781 41.2721 26.1194Z" fill="url(#paint1_linear_102_4161)"/>
<mask id="mask0_102_4161" style="mask-type:luminance" maskUnits="userSpaceOnUse" x="0" y="0" width="241" height="83">
<path d="M0 3.8147e-05H240.231V82.0591H0V3.8147e-05Z" fill="white"/>
</mask>
<g mask="url(#mask0_102_4161)">
<path d="M76.808 51.4413H66.18V33.8974L58.5513 33.8934V57.8047H70.3694C75.3666 57.8047 76.808 53.9531 76.808 51.9543V51.4413Z" fill="#13377D"/>
<path d="M120.121 47.6952H111.325V53.3711H121.151V54.1529C121.151 56.288 119.39 57.8047 116.666 57.8047H105.932V33.8934H120.652V38.3293H111.325V43.2957H120.121V47.6952Z" fill="#13377D"/>
<path d="M196.686 33.8932L205.196 49.9054V33.8932H210.165V57.8053H204.493L195.342 40.6205V54.2581C195.342 57.8053 192.553 57.8053 192.553 57.8053H190.372V33.8932H196.686Z" fill="#13377D"/>
<path d="M128.781 53.3697H138.257V54.1482C138.257 56.2833 136.499 57.7985 133.78 57.7985H123.624V33.9125H128.781V53.3697Z" fill="#13377D"/>
<path d="M145.406 53.3697H154.882V54.1482C154.882 56.2833 153.124 57.7985 150.405 57.7985H140.249V33.9125H145.406V53.3697Z" fill="#13377D"/>
<path d="M162.738 33.9172V52.8026C162.738 56.7978 161.017 57.7825 159.335 57.7825H157.355V33.9172H162.738Z" fill="#13377D"/>
<path d="M102.685 56.8232C101.762 57.2679 99.2626 57.8142 96.4917 57.8142C88.5188 57.8142 84.4127 52.8185 84.4127 46.2157C84.4127 38.3436 90.0237 33.9996 97.0062 33.9996C99.709 33.9996 101.762 34.5459 102.685 35.0256V39.1317C101.658 38.6869 99.0914 38.2754 97.2092 38.2754C93.1038 38.2754 89.8857 40.7729 89.8857 45.9398C89.8857 50.5597 92.625 53.4694 97.2449 53.4694C98.8519 53.4694 101.625 53.161 102.685 52.7147V56.8232Z" fill="#13377D"/>
</g>
<defs>
<linearGradient id="paint0_linear_102_4161" x1="41.1879" y1="45.9524" x2="26.7884" y2="33.8698" gradientUnits="userSpaceOnUse">
<stop stop-color="#498E33"/>
<stop offset="0.389742" stop-color="#498E33"/>
<stop offset="1" stop-color="#006B53"/>
</linearGradient>
<linearGradient id="paint1_linear_102_4161" x1="37.7068" y1="33.9751" x2="52.1053" y2="21.8934" gradientUnits="userSpaceOnUse">
<stop stop-color="#D0531C"/>
<stop offset="0.597765" stop-color="#D0531C"/>
<stop offset="1" stop-color="#C2141B"/>
</linearGradient>
</defs>
</svg>
